<svg width="360" height="640" xmlns="http://www.w3.org/2000/svg">
  <rect width="360" height="640" fill="#0D1117"/>
  <!-- Top glow -->
  <circle cx="180" cy="0" r="200" fill="#00D4FF" fill-opacity="0.1"/>
  <!-- Lock icon -->
  <rect x="130" y="100" width="100" height="100" rx="24" fill="#161B22"/>
  <path d="M180,130c-8.8,0-16,7.2-16,16v8h-4c-2.2,0-4,1.8-4,4v32c0,2.2,1.8,4,4,4h40c2.2,0,4-1.8,4-4V158c0-2.2-1.8-4-4-4h-4v-8C196,137.2,188.8,130,180,130z M170,146c0-5.5,4.5-10,10-10s10,4.5,10,10v8H170V146z" fill="#00D4FF"/>
  <!-- Text -->
  <text x="180" y="240" font-family="sans-serif" font-size="32" fill="#C9D1D9" text-anchor="middle" font-weight="bold">Cyph3rChat</text>
  <text x="180" y="280" font-family="sans-serif" font-size="16" fill="#8B93A8" text-anchor="middle">Zero-knowledge messaging.</text>
  <text x="180" y="300" font-family="sans-serif" font-size="16" fill="#8B93A8" text-anchor="middle">No accounts. No metadata.</text>
  <!-- Features -->
  <text x="60" y="360" font-family="sans-serif" font-size="14" fill="#C9D1D9">🔑 No accounts — just a keypair</text>
  <text x="60" y="390" font-family="sans-serif" font-size="14" fill="#C9D1D9">🔒 Zero-knowledge relay</text>
  <text x="60" y="420" font-family="sans-serif" font-size="14" fill="#C9D1D9">📵 Works without internet</text>
  <!-- Button -->
  <rect x="40" y="480" width="280" height="56" rx="14" fill="#00D4FF"/>
  <text x="180" y="515" font-family="sans-serif" font-size="18" fill="#0D1117" text-anchor="middle" font-weight="bold">Get Started</text>
</svg>
