<svg width="360" height="640" xmlns="http://www.w3.org/2000/svg">
  <rect width="360" height="640" fill="#0D1117"/>
  <!-- Top Bar -->
  <rect width="360" height="56" fill="#0D1117"/>
  <text x="56" y="38" font-family="sans-serif" font-size="20" fill="#C9D1D9" font-weight="bold">Alex K</text>
  <path d="M20,38l-8-8,8-8" stroke="#8B93A8" stroke-width="2" fill="none"/>
  <!-- E2EE Badge -->
  <g transform="translate(280, 20)">
    <path d="M10,2c-2.2,0-4,1.8-4,4v2h-1c-0.5,0-1,0.5-1,1v8c0,0.5,0.5,1,1,1h10c0.5,0,1-0.5,1-1v-8c0-0.5-0.5-1-1-1h-1v-2C14,3.8,12.2,2,10,2z" fill="#3FB950" transform="scale(0.8)"/>
    <text x="14" y="14" font-family="sans-serif" font-size="10" fill="#3FB950" font-weight="bold">E2EE</text>
  </g>
  <!-- Messages -->
  <g transform="translate(20, 100)">
    <!-- Incoming -->
    <rect width="240" height="40" rx="12" fill="#1E2535"/>
    <text x="14" y="24" font-family="sans-serif" font-size="14" fill="#C9D1D9">Hey! Are the files ready?</text>
  </g>
  <g transform="translate(100, 160)">
    <!-- Outgoing -->
    <rect width="240" height="40" rx="12" fill="#003D2E"/>
    <text x="14" y="24" font-family="sans-serif" font-size="14" fill="#C9D1D9">Yes, sending them over now ✓</text>
  </g>
  <!-- Input Bar -->
  <rect y="560" width="360" height="80" fill="#161B22"/>
  <rect x="12" y="572" width="280" height="48" rx="24" stroke="#2A3145" fill="#1E2535"/>
  <text x="28" y="602" font-family="sans-serif" font-size="14" fill="#4A5268">Message</text>
  <circle cx="324" cy="596" r="24" fill="#00D4FF"/>
  <path d="M316,588l16,8-16,8v-16z" fill="#0D1117"/>
</svg>
